<svg xmlns="http://www.w3.org/2000/svg" viewBox="0 0 512 512" width="4096" height="4096" shape-rendering="geometricPrecision">
  <title>Jackdaw Sentry Logo</title>
  <desc>High-definition vector master of the Jackdaw Sentry logo with subtle blockchain grid background.</desc>
  <defs>
    <linearGradient id="blueGrad" x1="0" y1="0" x2="1" y2="1">
      <stop offset="0%" stop-color="#4f8cff"/>
      <stop offset="100%" stop-color="#1e3a8a"/>
    </linearGradient>
  </defs>

  <g opacity="0.12">
    <g stroke="#8fb8ff" stroke-width="3" stroke-linecap="round" fill="none">
      <line x1="66" y1="132" x2="126" y2="96"/>
      <line x1="126" y1="96" x2="182" y2="138"/>
      <line x1="66" y1="132" x2="112" y2="206"/>
      <line x1="112" y1="206" x2="182" y2="138"/>
      <line x1="330" y1="122" x2="390" y2="92"/>
      <line x1="390" y1="92" x2="446" y2="142"/>
      <line x1="330" y1="122" x2="372" y2="200"/>
      <line x1="372" y1="200" x2="446" y2="142"/>
      <line x1="84" y1="340" x2="150" y2="382"/>
      <line x1="150" y1="382" x2="214" y2="334"/>
      <line x1="84" y1="340" x2="128" y2="286"/>
      <line x1="298" y1="344" x2="362" y2="392"/>
      <line x1="362" y1="392" x2="428" y2="344"/>
      <line x1="298" y1="344" x2="340" y2="286"/>
      <line x1="182" y1="138" x2="330" y2="122" opacity="0.55"/>
      <line x1="214" y1="334" x2="298" y2="344" opacity="0.55"/>
    </g>
    <g fill="#b7d0ff">
      <circle cx="66" cy="132" r="5"/>
      <circle cx="126" cy="96" r="5"/>
      <circle cx="182" cy="138" r="5"/>
      <circle cx="112" cy="206" r="4.5"/>
      <circle cx="330" cy="122" r="5"/>
      <circle cx="390" cy="92" r="5"/>
      <circle cx="446" cy="142" r="5"/>
      <circle cx="372" cy="200" r="4.5"/>
      <circle cx="84" cy="340" r="5"/>
      <circle cx="128" cy="286" r="4.5"/>
      <circle cx="150" cy="382" r="5"/>
      <circle cx="214" cy="334" r="5"/>
      <circle cx="298" cy="344" r="5"/>
      <circle cx="340" cy="286" r="4.5"/>
      <circle cx="362" cy="392" r="5"/>
      <circle cx="428" cy="344" r="5"/>
    </g>
  </g>

  <path d="M256 40 L420 120 L380 360 Q256 460 132 360 L92 120 Z"
        fill="none" stroke="url(#blueGrad)" stroke-width="24"/>
  <circle cx="256" cy="240" r="80" fill="none" stroke="url(#blueGrad)" stroke-width="16"/>
  <circle cx="256" cy="240" r="30" fill="#4f8cff"/>
  <line x1="256" y1="140" x2="256" y2="340" stroke="#4f8cff" stroke-width="8"/>
  <line x1="156" y1="240" x2="356" y2="240" stroke="#4f8cff" stroke-width="8"/>
  <circle cx="310" cy="290" r="50" fill="none" stroke="#ffffff" stroke-width="12"/>
  <line x1="350" y1="330" x2="420" y2="400" stroke="#ef4444" stroke-width="16" stroke-linecap="round"/>
</svg>
